<svg width="1024" height="1024" viewBox="0 0 1024 1024" fill="none" xmlns="http://www.w3.org/2000/svg">
<g filter="url(#filter0_i_304_9)">
<rect width="1024" height="1024" rx="30" fill="url(#paint0_linear_304_9)"/>
</g>
<g filter="url(#filter1_i_304_9)">
<path d="M788.536 405.936C778.554 407.001 760.319 410.598 746.609 413.928C729.173 418.323 694.034 434.041 677.929 444.564C668.346 450.957 666.083 452.955 651.308 467.607C622.958 495.846 617.767 504.104 588.351 565.909C583.826 575.367 580.232 583.492 580.232 583.891C580.232 584.691 577.304 590.818 565.458 615.46C562.53 621.321 560.267 626.915 560.267 627.848C560.267 628.78 559.735 630.512 558.936 631.844C556.939 635.573 545.626 659.949 545.626 660.615C545.626 661.014 542.431 668.074 538.571 676.333C534.578 684.591 529.787 695.247 527.657 700.042C525.661 704.837 522.333 712.163 520.203 716.426C518.074 720.555 516.343 724.817 516.343 725.883C516.343 726.815 515.545 728.281 514.613 729.08C513.681 729.879 512.084 733.609 511.019 737.338C510.088 740.935 508.757 743.998 508.091 743.998C507.559 743.998 507.026 744.798 507.026 745.863C507.026 746.929 503.832 754.255 499.972 762.247C496.245 770.106 491.054 781.294 488.525 786.889C485.996 792.617 483.201 797.279 482.403 797.279C481.604 797.279 480.007 795.281 478.809 792.883C475.881 787.289 464.434 762.513 464.434 761.847C464.434 761.314 462.171 756.253 455.649 742C454.052 738.271 451.124 732.01 449.393 728.014C447.53 724.018 443.537 715.227 440.476 708.7C437.414 702.04 434.087 694.581 432.889 692.05C431.824 689.519 428.097 681.394 424.503 674.068C413.988 651.957 412.524 648.627 412.524 647.694C412.524 646.762 408.531 637.838 399.347 618.124C395.62 610.265 392.692 603.871 386.303 589.486C382.576 581.227 380.447 576.699 372.727 559.782C369.665 553.255 367.27 547.661 367.27 547.394C367.27 546.462 361.946 534.874 358.618 528.214C356.888 524.884 353.959 518.357 351.963 513.562C349.966 508.766 344.509 496.778 339.718 486.921C335.059 477.065 330.667 467.741 330.001 466.275C328.138 461.747 322.547 449.359 318.155 440.035C315.892 435.106 314.029 430.444 314.029 429.645C314.029 428.846 311.899 423.784 309.37 418.323L309.289 418.149C306.497 412.161 300.488 408.333 293.882 408.333H192.906C128.618 408.333 81.1011 408.866 81.1011 409.532C81.1011 410.198 85.0941 411.796 90.0189 412.995C107.455 417.657 123.028 426.582 138.069 440.834C150.713 452.822 160.297 471.87 166.552 497.577C167.883 503.438 168.283 533.009 168.016 651.424C167.75 740.136 167.085 803.672 166.286 812.597C164.423 831.378 162.426 846.163 160.962 851.225C160.297 853.356 158.699 859.084 157.501 863.879C150.58 891.185 140.731 911.298 124.492 931.678C117.837 939.936 103.595 952.057 94.2782 957.385C92.5478 958.318 90.152 959.783 89.0872 960.582C86.9576 962.181 65.5282 969.773 59.4055 971.105C45.9623 973.902 63.931 974.435 180.262 974.435C296.992 974.435 314.295 973.902 301.118 970.972C287.941 968.175 271.57 961.248 261.055 954.055C252.27 948.061 237.762 934.075 230.707 924.618C224.851 917.026 211.008 890.119 207.548 879.863C204.886 871.604 201.957 860.682 200.759 854.555C200.227 851.225 199.029 845.497 198.364 841.901C195.169 826.183 194.104 816.459 192.906 793.283C191.442 764.644 191.309 496.512 192.773 495.713C193.838 495.047 196.101 499.176 201.558 512.23C203.688 517.025 207.281 525.017 209.544 530.212C211.94 535.273 215.534 543.398 217.53 548.194C223.919 563.379 224.585 564.711 227.247 570.838C230.84 578.963 238.028 594.547 244.151 607.468C259.59 640.635 262.652 647.295 276.761 679.396C280.62 688.187 287.009 702.173 291.002 710.432C294.862 718.69 298.057 725.75 298.057 726.016C298.057 726.416 301.251 733.476 305.111 741.734C314.295 760.915 315.892 764.378 319.353 773.302C320.95 777.298 323.878 784.225 326.008 788.621C328.005 793.016 331.066 799.543 332.663 803.273C336.656 812.33 341.448 822.853 346.639 833.909C348.902 838.97 351.83 845.364 353.028 847.895C354.093 850.426 357.686 858.284 361.014 865.344C364.341 872.404 367.403 879.463 367.935 881.195C368.468 882.926 371.529 889.986 374.856 897.046C378.184 904.105 381.778 911.964 382.843 914.495C387.501 924.885 393.091 937.139 398.549 948.461C401.61 954.988 405.47 963.646 407.2 967.509L410.395 974.568L429.162 973.769L433.954 963.779C436.616 958.318 439.81 951.658 440.875 949.127C442.073 946.596 446.332 937.006 450.458 927.815C454.584 918.624 458.71 909.3 459.642 907.169C460.707 904.905 463.901 897.445 467.096 890.519C470.157 883.592 473.485 876 474.416 873.869C477.078 867.875 482.935 854.688 486.396 847.229C488.126 843.499 491.187 836.972 493.051 832.577C499.04 819.123 501.835 812.996 506.494 803.273C508.89 798.078 511.818 791.285 513.149 787.954C516.743 778.231 517.142 777.298 524.862 761.048C528.988 752.39 532.316 745.064 532.316 744.664C532.316 744.398 534.179 740.269 536.309 735.74C538.571 731.211 540.302 727.082 540.302 726.549C540.302 725.617 555.209 693.249 557.605 689.12C558.404 687.788 558.936 686.056 558.936 685.257C558.936 683.659 574.642 648.76 587.02 623.186C591.413 614.128 594.873 606.269 594.873 605.603C594.873 604.937 595.805 602.673 596.87 600.541C599.665 595.213 606.187 580.295 608.184 574.834C616.17 552.722 630.412 528.613 633.739 531.943C634.405 532.609 634.671 611.864 634.538 718.157C634.138 891.851 634.005 903.573 631.743 910.499C626.152 927.682 621.893 935.274 612.177 945.131C599.931 957.652 591.013 962.181 560.666 971.238C559.735 971.505 558.936 972.304 558.936 973.103C558.936 974.702 941.736 974.968 942.801 973.37C943.067 972.837 943.733 968.708 944.265 964.445C944.665 960.05 946.262 948.061 947.859 937.805C949.323 927.549 951.053 915.561 951.586 911.165C952.251 906.769 953.982 895.314 955.579 885.857C957.176 876.266 959.039 864.944 959.572 860.549C960.237 856.153 961.968 845.098 963.432 835.907C969.288 800.609 970.486 791.684 969.022 790.219C967.558 788.754 963.698 792.483 963.565 795.414C963.565 796.08 962.101 799.676 960.371 803.406C958.64 807.002 955.313 814.328 953.05 819.656C947.726 831.777 942.002 842.434 935.347 852.157C932.552 856.286 930.29 860.149 930.29 860.549C930.29 863.213 912.188 885.857 899.942 898.777C881.175 918.358 848.831 942.467 841.245 942.467C839.914 942.467 838.449 943 837.651 943.666C834.19 946.863 818.085 950.459 806.904 950.459C787.338 950.459 777.223 943.533 771.766 926.483C769.103 917.958 768.97 542.333 771.632 526.882C775.492 505.037 778.421 493.581 783.478 481.593C795.191 453.621 806.771 439.769 825.672 430.444C834.589 426.049 851.094 423.651 856.817 425.782L860.411 427.248L857.084 429.912C842.442 441.633 831.528 456.019 827.801 468.273C825.539 475.866 824.474 505.436 826.337 507.301C827.136 508.1 827.801 509.699 827.801 510.898C827.801 512.096 829.665 517.025 832.061 521.687C837.518 532.609 853.623 548.993 863.872 553.788C905.133 573.369 950.787 553.655 964.763 510.498C972.882 485.19 964.23 454.953 943.333 435.373C926.962 420.188 901.14 409.665 870.261 405.802C857.084 404.071 804.109 404.204 788.536 405.936Z" fill="url(#paint1_linear_304_9)"/>
</g>
<defs>
<filter id="filter0_i_304_9" x="0" y="0" width="1024" height="1025" filterUnits="userSpaceOnUse" color-interpolation-filters="sRGB">
<feFlood flood-opacity="0" result="BackgroundImageFix"/>
<feBlend mode="normal" in="SourceGraphic" in2="BackgroundImageFix" result="shape"/>
<feColorMatrix in="SourceAlpha" type="matrix" values="0 0 0 0 0 0 0 0 0 0 0 0 0 0 0 0 0 0 127 0" result="hardAlpha"/>
<feOffset dy="1"/>
<feGaussianBlur stdDeviation="1"/>
<feComposite in2="hardAlpha" operator="arithmetic" k2="-1" k3="1"/>
<feColorMatrix type="matrix" values="0 0 0 0 0.107457 0 0 0 0 0.106622 0 0 0 0 0.106622 0 0 0 0.25 0"/>
<feBlend mode="normal" in2="shape" result="effect1_innerShadow_304_9"/>
</filter>
<filter id="filter1_i_304_9" x="55.5898" y="404.568" width="914" height="572" filterUnits="userSpaceOnUse" color-interpolation-filters="sRGB">
<feFlood flood-opacity="0" result="BackgroundImageFix"/>
<feBlend mode="normal" in="SourceGraphic" in2="BackgroundImageFix" result="shape"/>
<feColorMatrix in="SourceAlpha" type="matrix" values="0 0 0 0 0 0 0 0 0 0 0 0 0 0 0 0 0 0 127 0" result="hardAlpha"/>
<feOffset dy="2"/>
<feGaussianBlur stdDeviation="1"/>
<feComposite in2="hardAlpha" operator="arithmetic" k2="-1" k3="1"/>
<feColorMatrix type="matrix" values="0 0 0 0 0 0 0 0 0 0 0 0 0 0 0 0 0 0 0.25 0"/>
<feBlend mode="normal" in2="shape" result="effect1_innerShadow_304_9"/>
</filter>
<linearGradient id="paint0_linear_304_9" x1="8.37395e-06" y1="21.0051" x2="260.882" y2="1085.54" gradientUnits="userSpaceOnUse">
<stop offset="0.427926" stop-color="white"/>
<stop offset="1" stop-color="#C2C2C2"/>
</linearGradient>
<linearGradient id="paint1_linear_304_9" x1="512.59" y1="404.568" x2="493.499" y2="886.5" gradientUnits="userSpaceOnUse">
<stop stop-color="#463F3F"/>
<stop offset="1" stop-color="#807B7B"/>
</linearGradient>
</defs>
</svg>
