<svg width="1370" height="1371" viewBox="0 0 1370 1371" fill="none" xmlns="http://www.w3.org/2000/svg">
<rect width="1370" height="1371" rx="340" fill="#1A1A1A"/>
<rect x="13" width="1344" height="1337" rx="340" fill="url(#paint0_linear_267_26)"/>
<path d="M26 356C26 168.223 178.223 16 366 16H1003C1190.78 16 1343 168.223 1343 356V986C1343 1173.78 1190.78 1326 1003 1326H366C178.223 1326 26 1173.78 26 986V356Z" fill="url(#paint1_linear_267_26)"/>
<mask id="mask0_267_26" style="mask-type:alpha" maskUnits="userSpaceOnUse" x="26" y="7" width="1327" height="1320">
<rect x="26" y="7" width="1327" height="1320" rx="340" fill="white"/>
</mask>
<g mask="url(#mask0_267_26)">
<path d="M2 383C507.341 383 917 792.659 917 1298C917 1803.34 507.341 2213 2 2213C-503.341 2213 -913 1803.34 -913 1298C-913 792.659 -503.341 383 2 383ZM-23 553C-451.021 553 -798 897.965 -798 1323.5C-798 1749.04 -451.021 2094 -23 2094C405.021 2094 752 1749.04 752 1323.5C752 897.965 405.021 553 -23 553Z" fill="url(#paint2_radial_267_26)"/>
<path d="M2 613C380.315 613 687 919.685 687 1298C687 1676.32 380.315 1983 2 1983C-376.315 1983 -683 1676.32 -683 1298C-683 919.685 -376.315 613 2 613ZM-23 764C-323.995 764 -568 1008 -568 1309C-568 1610 -323.995 1854 -23 1854C277.995 1854 522 1610 522 1309C522 1008 277.995 764 -23 764Z" fill="url(#paint3_radial_267_26)"/>
<path d="M2 843C253.29 843 457 1046.71 457 1298C457 1549.29 253.29 1753 2 1753C-249.29 1753 -453 1549.29 -453 1298C-453 1046.71 -249.29 843 2 843ZM2 1004C-160.372 1004 -292 1135.63 -292 1298C-292 1460.37 -160.372 1592 2 1592C164.372 1592 296 1460.37 296 1298C296 1135.63 164.372 1004 2 1004Z" fill="url(#paint4_radial_267_26)"/>
</g>
<path d="M682.5 115C1007.49 115 1272 370.92 1272 685.5C1272 901.981 1146.77 1090.68 962.734 1187.32C959.974 1163.09 956.318 1139.14 951.801 1115.49C1008.37 1082.13 1057.84 1038.59 1097.65 987.529H934.112C931.144 994.517 928.065 1001.46 924.877 1008.37C914.471 975.179 902.325 942.76 888.544 911.218C909.548 849.257 921.79 784.798 925.027 719.059H776.614C759.246 695.858 740.861 673.464 721.523 651.941H924.958C921.698 582.944 908.383 515.356 885.496 450.588H476.591C476.13 451.893 475.674 453.199 475.221 454.506C425.082 426.316 372.176 402.469 317.012 383.471H427.767C454.745 319.709 490.947 259.37 534.57 203.125C432.016 232.638 342.912 292.058 277.476 370.805C253.467 363.682 229.069 357.468 204.32 352.199C311.479 208.613 485.903 115 682.5 115ZM994.38 719.059C991.328 787.787 979.746 855.375 958.802 920.412H1142.17C1175.53 859.604 1195.99 791.344 1200.91 719.059H994.38ZM959.011 450.588C979.886 515.625 991.398 583.213 994.38 651.941H1200.91C1195.92 579.656 1175.46 511.396 1142.17 450.588H959.011ZM682.5 182.117C668.352 182.117 654.551 183.124 640.75 184.131C583.603 244.335 537.899 311.588 504.124 383.471H857.963C824.119 311.521 778.346 244.202 721.199 183.997C708.369 183.125 695.538 182.117 682.5 182.117ZM826.893 202.253C870.862 258.766 907.203 319.373 934.39 383.471H1097.65C1030.65 297.56 936.331 232.926 826.893 202.253Z" fill="url(#paint5_radial_267_26)"/>
<defs>
<linearGradient id="paint0_linear_267_26" x1="685" y1="0" x2="685" y2="1337" gradientUnits="userSpaceOnUse">
<stop stop-color="#E35454"/>
<stop offset="0.798077" stop-color="#DC2626"/>
<stop offset="1" stop-color="#761515"/>
</linearGradient>
<linearGradient id="paint1_linear_267_26" x1="1240.5" y1="107.5" x2="93" y2="1202" gradientUnits="userSpaceOnUse">
<stop offset="0.504027" stop-color="#111717"/>
<stop offset="0.892781"/>
</linearGradient>
<radialGradient id="paint2_radial_267_26" cx="0" cy="0" r="1" gradientUnits="userSpaceOnUse" gradientTransform="translate(1259.5 140) rotate(137.454) scale(1543.97 1691.13)">
<stop offset="0.480769" stop-color="#E35454"/>
<stop offset="0.728334" stop-color="#DC2626"/>
<stop offset="1" stop-color="#761515"/>
</radialGradient>
<radialGradient id="paint3_radial_267_26" cx="0" cy="0" r="1" gradientUnits="userSpaceOnUse" gradientTransform="translate(943.407 431.082) rotate(137.454) scale(1155.87 1266.04)">
<stop offset="0.480769" stop-color="#E35454"/>
<stop offset="0.728334" stop-color="#DC2626"/>
<stop offset="1" stop-color="#761515"/>
</radialGradient>
<radialGradient id="paint4_radial_267_26" cx="0" cy="0" r="1" gradientUnits="userSpaceOnUse" gradientTransform="translate(627.314 722.164) rotate(137.454) scale(767.766 840.947)">
<stop offset="0.480769" stop-color="#E35454"/>
<stop offset="0.728334" stop-color="#DC2626"/>
<stop offset="1" stop-color="#761515"/>
</radialGradient>
<radialGradient id="paint5_radial_267_26" cx="0" cy="0" r="1" gradientUnits="userSpaceOnUse" gradientTransform="translate(715.5 689) rotate(142) scale(1064.71 901.857)">
<stop offset="0.00480769" stop-color="white"/>
<stop offset="1" stop-color="white"/>
</radialGradient>
</defs>
</svg>
