<svg width="128" height="128" viewBox="0 0 128 128" fill="none" xmlns="http://www.w3.org/2000/svg">
  <defs>
    <linearGradient id="badgeGradient" x1="16" y1="112" x2="112" y2="16" gradientUnits="userSpaceOnUse">
      <stop offset="0" stop-color="#F97316" />
      <stop offset="0.38" stop-color="#A855F7" />
      <stop offset="0.72" stop-color="#EC4899" />
      <stop offset="1" stop-color="#FACC15" />
    </linearGradient>
    <linearGradient id="symbolGradient" x1="38" y1="82" x2="90" y2="34" gradientUnits="userSpaceOnUse">
      <stop offset="0" stop-color="#38BDF8" />
      <stop offset="1" stop-color="#8B5CF6" />
    </linearGradient>
    <radialGradient id="glowGradient" cx="0" cy="0" r="1" gradientUnits="userSpaceOnUse" gradientTransform="translate(64 64) rotate(90) scale(48)">
      <stop offset="0" stop-color="#60A5FA" stop-opacity="0.24" />
      <stop offset="0.48" stop-color="#A855F7" stop-opacity="0.18" />
      <stop offset="1" stop-color="#0F172A" stop-opacity="0" />
    </radialGradient>
    <linearGradient id="innerShade" x1="30" y1="30" x2="98" y2="98" gradientUnits="userSpaceOnUse">
      <stop stop-color="#FFFFFF" />
      <stop offset="1" stop-color="#0F172A" />
    </linearGradient>
    <filter id="glow" x="8" y="8" width="112" height="112" filterUnits="userSpaceOnUse" color-interpolation-filters="sRGB">
      <feFlood flood-opacity="0" result="BackgroundImageFix" />
      <feBlend mode="normal" in="SourceGraphic" in2="BackgroundImageFix" result="shape" />
      <feGaussianBlur stdDeviation="10" result="effect1_foregroundBlur" />
    </filter>
  </defs>

  <circle cx="64" cy="64" r="44" fill="url(#glowGradient)" filter="url(#glow)" />
  <rect x="24" y="24" width="80" height="80" rx="22" fill="#05070D" />
  <rect x="22.5" y="22.5" width="83" height="83" rx="23.5" stroke="url(#badgeGradient)" stroke-width="3" />
  <rect x="27" y="27" width="74" height="74" rx="19" fill="url(#innerShade)" fill-opacity="0.08" />

  <path d="M64 56.5C58.201 56.5 53.5 51.799 53.5 46C53.5 40.201 58.201 35.5 64 35.5C69.799 35.5 74.5 40.201 74.5 46C74.5 51.799 69.799 56.5 64 56.5Z" stroke="url(#symbolGradient)" stroke-width="4" />
  <path d="M43 87.5C37.201 87.5 32.5 82.799 32.5 77C32.5 71.201 37.201 66.5 43 66.5C48.799 66.5 53.5 71.201 53.5 77C53.5 82.799 48.799 87.5 43 87.5Z" stroke="url(#symbolGradient)" stroke-width="4" />
  <path d="M85 87.5C79.201 87.5 74.5 82.799 74.5 77C74.5 71.201 79.201 66.5 85 66.5C90.799 66.5 95.5 71.201 95.5 77C95.5 82.799 90.799 87.5 85 87.5Z" stroke="url(#symbolGradient)" stroke-width="4" />
  <path d="M88 63C88 54.637 84.333 47.131 78.519 42M40 63C40 54.637 43.667 47.131 49.481 42M56.5 84.868C58.737 85.444 61.083 85.75 63.5 85.75C65.917 85.75 68.263 85.444 70.5 84.868" stroke="url(#symbolGradient)" stroke-width="4" stroke-linecap="round" />
</svg>
