<svg width="104" height="101" viewBox="0 0 104 101" fill="none" xmlns="http://www.w3.org/2000/svg">
<rect width="104" height="101" fill="white"/>
<path d="M65.5511 64.2443L65.6364 50.267H67.1705L75.0966 39.2727H88.3068L75.0114 56.4034H71.6875L65.5511 64.2443ZM54.983 72V28.3636H66.7443V72H54.983ZM75.1818 72L67.6818 59.0455L75.3523 50.6932L88.6477 72H75.1818Z" fill="black"/>
<path d="M38.4489 64.2443L38.3636 50.267H36.8295L28.9034 39.2727H15.6932L28.9886 56.4034H32.3125L38.4489 64.2443ZM49.017 72V28.3636H37.2557V72H49.017ZM28.8182 72L36.3182 59.0455L28.6477 50.6932L15.3523 72H28.8182Z" fill="black"/>
</svg>
