<svg xmlns="http://www.w3.org/2000/svg" fill="none" viewBox="0 0 449 389"><path stroke="url(#a)" stroke-width="20" d="M26 10h397c8.837 0 16 7.163 16 16v337c0 8.837-7.163 16-16 16H26c-8.837 0-16-7.163-16-16V26c0-8.837 7.163-16 16-16Z"/><path fill="#fff" d="M423 0c14.359 0 26 11.64 26 26v39H0V26C0 11.64 11.64 0 26 0zm-80.404 23c-5.3 0-9.596 4.253-9.596 9.5s4.296 9.5 9.596 9.5 9.595-4.253 9.595-9.5-4.296-9.5-9.595-9.5m33.904 0c-5.299 0-9.596 4.253-9.596 9.5s4.297 9.5 9.596 9.5 9.596-4.253 9.596-9.5-4.297-9.5-9.596-9.5m33.904 0c-5.299 0-9.595 4.253-9.595 9.5s4.296 9.5 9.595 9.5S420 37.747 420 32.5s-4.296-9.5-9.596-9.5"/><g filter="url(#b)"><path fill="url(#c)" d="M226.824 104c63.399 0 115 49.345 115 110 0 51.152-36.689 94.259-86.218 106.512l.001-.012q-.001-6.744-.466-13.369c21.29-5.935 39.634-18.369 52.67-34.896h-31.903c-5.259 12.238-12.308 23.829-20.788 34.625a189 189 0 0 0-2.437-19.609 144 144 0 0 0 8.316-15.016h-11.631a187 187 0 0 0-3.924-12.941h20.953a134.6 134.6 0 0 0 7.74-38.823h-47.233a189 189 0 0 0-8.887-12.942h56.106a134.2 134.2 0 0 0-7.698-38.823h-79.77a134 134 0 0 0-1.599 4.748 189 189 0 0 0-26.259-17.689h18.334c5.263-12.294 12.325-23.928 20.835-34.773-18.997 5.404-35.628 16.006-48.187 30.061A187 187 0 0 0 137 145.386C158.091 120.175 190.519 104 226.824 104m60.842 116.471c-.595 13.251-2.856 26.283-6.941 38.823h35.772c6.508-11.725 10.498-24.886 11.459-38.823zm-6.9-51.765c4.072 12.54 6.318 25.572 6.9 38.823h40.29c-.974-13.937-4.965-27.098-11.459-38.823zm-53.942-51.765c-2.76 0-5.452.194-8.144.388-11.149 11.608-20.065 24.576-26.654 38.436h69.028c-6.603-13.873-15.533-26.853-26.681-38.461-2.503-.169-5.005-.363-7.549-.363m28.168 3.882c8.578 10.897 15.667 22.583 20.971 34.942h31.848c-13.07-16.565-31.47-29.028-52.819-34.942"/></g><path fill="#f1eee9" fill-rule="evenodd" d="M54 297.449V326h28.754c0-15.773-12.867-28.551-28.754-28.551m0-59.253v28.55c28.754 0 58.228 28.549 58.228 57.098h28.754c0-42.824-43.85-85.648-86.982-85.648M54 124v28.551c100.641 0 173.245 71.371 173.245 171.293H256C256 209.647 169.018 124 54 124m144.491 199.844h-28.754c0-71.373-58.228-114.195-115.737-114.195v-28.551c86.263 0 144.491 57.099 144.491 142.746" clip-rule="evenodd"/><defs><linearGradient id="a" x1="429.5" x2="23" y1="70" y2="367.5" gradientUnits="userSpaceOnUse"><stop stop-color="#fff"/><stop offset="1" stop-color="#3d5e67"/></linearGradient><linearGradient id="c" x1="424.607" x2="19.607" y1="77" y2="374.5" gradientUnits="userSpaceOnUse"><stop stop-color="#d9d9d9"/><stop offset="1" stop-color="#3e5f68"/></linearGradient><filter id="b" width="216.824" height="228.512" x="131" y="102" color-interpolation-filters="sRGB" filterUnits="userSpaceOnUse"><feFlood flood-opacity="0" result="BackgroundImageFix"/><feColorMatrix in="SourceAlpha" result="hardAlpha" values="0 0 0 0 0 0 0 0 0 0 0 0 0 0 0 0 0 0 127 0"/><feOffset dy="4"/><feGaussianBlur stdDeviation="3"/><feComposite in2="hardAlpha" operator="out"/><feColorMatrix values="0 0 0 0 0 0 0 0 0 0 0 0 0 0 0 0 0 0 0.25 0"/><feBlend in2="BackgroundImageFix" result="effect1_dropShadow_3_38"/><feBlend in="SourceGraphic" in2="effect1_dropShadow_3_38" result="shape"/></filter></defs></svg>