<svg width="1764" height="1764" viewBox="0 0 1764 1764" xmlns="http://www.w3.org/2000/svg">
  <g fill="none" fill-rule="evenodd">
    <circle class="logo-color" stroke="#FFF" stroke-width="100" stroke-linejoin="round" cx="882" cy="882" r="692"/>
    <path d="M479.091 857.521c50.803-94.35 14.007-117.57 14.007-117.57s123.297 16.243 120.46 118.27c-2.935 102.027-7.003 249.837-7.003 249.837S428.35 952.544 479.091 857.521zm267.534-34.991C746.625 727.03 634.57 544 634.57 544s244.423 185.992 244.423 279.23V1339S746.625 918.029 746.625 822.53zm-6.303 6.998C743.705 730.878 628.266 544 628.266 544l-15.408 564.058s123.93-179.774 127.464-278.53zm545.59 27.993c-50.82-94.35-14.007-117.57-14.007-117.57s-123.313 16.243-120.427 118.27c2.886 102.027 7.003 249.837 7.003 249.837s178.156-155.514 127.43-250.537zm-267.55-34.991c0-95.499 112.056-278.53 112.056-278.53S885.995 729.992 885.995 823.23V1339s132.366-420.971 132.366-516.47zm6.379 7.05C1021.282 730.879 1136.785 544 1136.785 544l15.343 564.058S1028.2 928.284 1024.741 829.581z" class="logo-color" fill="#FFF"/>
  </g>
</svg>