<svg xmlns="http://www.w3.org/2000/svg" fill="none" viewBox="0 0 1024 1024"><mask id="a" width="1024" height="1024" x="0" y="0" maskUnits="userSpaceOnUse" style="mask-type:alpha"><path fill="#000" d="M1024 0H0v1024h1024z"/></mask><g mask="url(#a)"><circle cx="507" cy="503" r="450" stroke="url(#b)" stroke-opacity=".9" stroke-width="20"/><g filter="url(#c)"><mask id="f" fill="#fff"><path d="M506.148 540.21c187.761 0 348.281 88.362 413.07 236.477H888.25c-.134.007-40.048 1.956-65.463-3.955-34.097-7.929-54.877-18.641-67.123-27.353-58.234-60.982-145.221-98.399-233.698-98.399q-8.888 0-17.735.394l-.966-.394c-.021.006-.702.189-1.973.536-80.093 4.153-156.694 32.357-209.797 81.098-47.108 25.654-78.176 43.328-137.805 43.328-17.69 0-38.171-.907-57.527-2.105C162.854 625.851 321.3 540.21 506.148 540.21"/></mask><path fill="url(#d)" fill-opacity=".8" d="M506.148 540.21c187.761 0 348.281 88.362 413.07 236.477H888.25c-.134.007-40.048 1.956-65.463-3.955-34.097-7.929-54.877-18.641-67.123-27.353-58.234-60.982-145.221-98.399-233.698-98.399q-8.888 0-17.735.394l-.966-.394c-.021.006-.702.189-1.973.536-80.093 4.153-156.694 32.357-209.797 81.098-47.108 25.654-78.176 43.328-137.805 43.328-17.69 0-38.171-.907-57.527-2.105C162.854 625.851 321.3 540.21 506.148 540.21"/><path fill="url(#e)" fill-opacity=".3" d="M506.148 540.21v-5zm413.07 236.477v5h7.644l-3.064-7.004zm-30.968 0v-5h-.123l-.122.006zm-65.463-3.955-1.133 4.87zm-67.123-27.353-3.616 3.453.329.345.388.276zM521.966 646.98v-5zm-17.735.394-1.887 4.63 1.015.413 1.094-.048zm-.966-.394 1.887-4.63-1.555-.634-1.622.434zm-1.973.536.259 4.994.538-.028.52-.142zm-209.797 81.098 2.391 4.391.538-.293.452-.414zM153.69 771.942v5zm-57.527-2.105-4.537-2.102-3.076 6.64 7.304.452zM506.148 540.21v5c186.308 0 344.69 87.629 408.489 233.481l4.581-2.004 4.58-2.004C858.02 624.305 695.362 535.21 506.148 535.21zm413.07 236.477v-5H888.25v10h30.968zm-30.968 0-.245-4.994c.003 0-2.471.121-6.576.211-4.106.091-9.832.149-16.335.026-13.1-.25-28.999-1.236-41.175-4.068l-1.132 4.87-1.133 4.87c26.213 6.096 66.84 4.079 66.84 4.079zm-65.463-3.955 1.132-4.87c-33.562-7.805-53.72-18.279-65.357-26.558l-2.898 4.075-2.899 4.074c12.857 9.146 34.259 20.096 68.889 28.149zm-67.123-27.353 3.616-3.453c-59.196-61.989-147.497-99.946-237.314-99.946v10c87.137 0 172.809 36.877 230.082 96.852zM521.966 646.98v-5q-8.999 0-17.957.399l.222 4.995.222 4.995a394 394 0 0 1 17.513-.389zm-17.735.394 1.887-4.631-.966-.393-1.887 4.63-1.886 4.631.965.393zm-.966-.394-1.29-4.83c-.035.009-.727.195-2 .543l1.317 4.823 1.317 4.824 1.446-.394.375-.101.126-.034zm-1.973.536-.259-4.993c-81.014 4.2-158.796 32.731-212.919 82.407l3.381 3.684 3.381 3.684c52.084-47.806 127.502-75.684 206.675-79.788zm-209.797 81.098-2.391-4.391c-47.074 25.635-77.161 42.719-135.414 42.719v10c61.005 0 93.054-18.264 140.196-43.937zM153.69 771.942v-5c-17.542 0-37.907-.9-57.218-2.096l-.31 4.991-.308 4.99c19.402 1.201 39.998 2.115 57.836 2.115zm-57.527-2.105 4.537 2.101C166.376 630.144 322.733 545.21 506.148 545.21v-10c-186.28 0-346.815 86.349-414.522 232.525z" mask="url(#f)"/><path fill="url(#g)" fill-opacity=".8" d="M477.957 140.992c44.094-17.332 123.38-7.909 123.38-7.909L450.671 423.341l-75.333 145.13-37.666 72.564-18.833 36.283s-9.203 23.549-18.834 36.282c-18.088 23.915-40.955 33.981-63.271 43.499-15.186 6.477-23.509 8.729-39.545 12.655-10.708 2.621-28.472 3.954-28.472 3.954l-73.251 1.51c-1.54.032-2.598-1.504-1.855-2.853 13.339-24.219 106.507-193.439 166.85-304.733 32.205-59.4 49.762-92.972 81.462-152.643 16.4-30.87 24.71-48.662 41.917-79.09 8.449-14.94 22.145-37.963 22.145-37.963s16.965-24.163 31.636-35.59c14.062-10.952 23.748-14.834 40.336-21.354"/><path stroke="url(#h)" stroke-opacity=".3" stroke-width="5" d="M556.163 133.038c12.597.094 23.828.727 31.908 1.337 3.94.297 7.128.588 9.358.808L448.452 422.19l-75.333 145.129-56.499 108.847-.061.118-.049.124-.001.003-.004.011-.019.047-.077.193-.302.755a261 261 0 0 1-5.337 12.207c-3.492 7.451-8.11 16.321-12.758 22.468-17.648 23.333-39.937 33.187-62.259 42.708-15.007 6.4-23.183 8.614-39.158 12.525-5.192 1.271-12.178 2.246-17.942 2.905a312 312 0 0 1-9.356.924l-.573.046-.128.01-72.317 1.49c14.948-27.14 106.71-193.824 166.379-303.877 32.213-59.412 49.778-93.001 81.473-152.661 16.458-30.98 24.694-48.632 41.886-79.032 4.213-7.451 9.741-16.927 14.219-24.548 2.239-3.809 4.213-7.151 5.628-9.541l1.666-2.81.449-.756.107-.18.131-.184c.125-.175.311-.436.554-.773.485-.674 1.198-1.652 2.099-2.863a286 286 0 0 1 7.371-9.471c6.055-7.444 13.816-16.156 20.916-21.686 13.761-10.717 23.162-14.493 39.714-20.999 21.569-8.478 51.998-10.47 77.292-10.281Z"/><path fill="url(#i)" fill-opacity=".8" d="m587.891 155.835-82.253 160.736 164.507 330.41s17.837 45.516 45.871 63.271c23.727 15.027 39.374 38.911 61.69 48.429 15.186 6.477 23.509 8.729 39.545 12.654 10.708 2.622 28.472 3.955 28.472 3.955l73.289 1.511c1.531.031 2.528-1.6 1.802-2.948z"/><path stroke="url(#j)" stroke-opacity=".3" stroke-width="5" d="m508.439 316.586 163.943 329.28.05.1.04.103.002.004.008.021.036.09.15.369c.133.328.333.814.599 1.442a176 176 0 0 0 2.37 5.322 210 210 0 0 0 9.088 17.378c7.913 13.511 19.133 28.898 32.629 37.445 12.111 7.67 22.156 17.601 31.744 26.567 9.684 9.054 18.885 17.109 29.589 21.675 15.007 6.4 23.183 8.614 39.158 12.525 5.192 1.271 12.179 2.245 17.942 2.904a314 314 0 0 0 9.356.925l.573.046.145.01 72.346 1.491-330.258-613.071z"/></g></g><defs><linearGradient id="b" x1="507" x2="507" y1="43" y2="963" gradientUnits="userSpaceOnUse"><stop stop-color="#fffbdb"/><stop offset=".481" stop-color="#3a00ff" stop-opacity=".9"/><stop offset="1" stop-color="#f5f5ff"/></linearGradient><linearGradient id="d" x1="757.071" x2="712.709" y1="575.355" y2="843.861" gradientUnits="userSpaceOnUse"><stop stop-color="#fff"/><stop offset=".192" stop-color="#7541ef"/><stop offset=".476" stop-color="#3c03c1"/><stop offset=".74" stop-color="#885ee9"/><stop offset="1" stop-color="#fff"/></linearGradient><linearGradient id="g" x1="601.337" x2="153.69" y1="130.526" y2="714.998" gradientUnits="userSpaceOnUse"><stop stop-color="#fffff6"/><stop offset=".178" stop-color="#f4f4f4" stop-opacity=".787"/><stop offset=".447" stop-color="#7541ef" stop-opacity=".6"/><stop offset=".611" stop-color="#3c03c1"/><stop offset=".74" stop-color="#885ee9"/><stop offset="1" stop-color="#fff"/></linearGradient><linearGradient id="i" x1="503.266" x2="856.796" y1="227.806" y2="730.025" gradientUnits="userSpaceOnUse"><stop stop-color="#fff"/><stop offset=".192" stop-color="#7541ef"/><stop offset=".476" stop-color="#3c03c1" stop-opacity=".6"/><stop offset=".74" stop-color="#885ee9"/><stop offset="1" stop-color="#fff"/></linearGradient><radialGradient id="e" cx="0" cy="0" r="1" gradientTransform="matrix(-146.03 56.7844 -191.122 -27.075 456.348 659.733)" gradientUnits="userSpaceOnUse"><stop stop-color="#fff"/><stop offset="1" stop-color="#fff9f9" stop-opacity="0"/></radialGradient><radialGradient id="h" cx="0" cy="0" r="1" gradientTransform="rotate(121.114 30.802 318.017)scale(180.602 142.668)" gradientUnits="userSpaceOnUse"><stop stop-color="#fff"/><stop offset="1" stop-color="#fff9f9" stop-opacity="0"/></radialGradient><radialGradient id="j" cx="0" cy="0" r="1" gradientTransform="rotate(58.886 -57.585 844.82)scale(180.602 142.668)" gradientUnits="userSpaceOnUse"><stop stop-color="#fff"/><stop offset="1" stop-color="#fff9f9" stop-opacity="0"/></radialGradient><filter id="c" width="941.688" height="770.474" x="36.368" y="130.526" color-interpolation-filters="sRGB" filterUnits="userSpaceOnUse"><feFlood flood-opacity="0" result="BackgroundImageFix"/><feColorMatrix in="SourceAlpha" result="hardAlpha" values="0 0 0 0 0 0 0 0 0 0 0 0 0 0 0 0 0 0 127 0"/><feOffset dy="25.807"/><feGaussianBlur stdDeviation="9.078"/><feColorMatrix values="0 0 0 0 0 0 0 0 0 0 0 0 0 0 0 0 0 0 0.151852 0"/><feBlend in2="BackgroundImageFix" result="effect1_dropShadow_326_2"/><feColorMatrix in="SourceAlpha" result="hardAlpha" values="0 0 0 0 0 0 0 0 0 0 0 0 0 0 0 0 0 0 127 0"/><feOffset dy="43.426"/><feGaussianBlur stdDeviation="16.691"/><feColorMatrix values="0 0 0 0 0 0 0 0 0 0 0 0 0 0 0 0 0 0 0.189815 0"/><feBlend in2="effect1_dropShadow_326_2" result="effect2_dropShadow_326_2"/><feColorMatrix in="SourceAlpha" result="hardAlpha" values="0 0 0 0 0 0 0 0 0 0 0 0 0 0 0 0 0 0 127 0"/><feOffset dy="67"/><feGaussianBlur stdDeviation="28.5"/><feColorMatrix values="0 0 0 0 0 0 0 0 0 0 0 0 0 0 0 0 0 0 0.25 0"/><feBlend in2="effect2_dropShadow_326_2" result="effect3_dropShadow_326_2"/><feBlend in="SourceGraphic" in2="effect3_dropShadow_326_2" result="shape"/></filter></defs></svg>