<svg xmlns="http://www.w3.org/2000/svg" fill="none" viewBox="0 0 1540 1540"><path stroke="#000" stroke-linejoin="round" stroke-width="100" d="M769.5 1445c372.52 0 674.5-301.98 674.5-674.5C1444 397.984 1142.02 96 769.5 96 396.984 96 95 397.984 95 770.5c0 372.52 301.984 674.5 674.5 674.5Z"/><path stroke="url(#a)" stroke-linejoin="round" stroke-width="100" d="M770 1462c382.18 0 692-309.82 692-692S1152.18 78 770 78 78 387.819 78 770s309.819 692 692 692Z"/><path stroke="url(#b)" stroke-linejoin="round" stroke-opacity=".2" stroke-width="100" d="M770 1462c382.18 0 692-309.82 692-692S1152.18 78 770 78 78 387.819 78 770s309.819 692 692 692Z"/><path fill="#0f0d0d" fill-rule="evenodd" d="M367.091 748.944c50.803-102.302 14.007-127.479 14.007-127.479s123.297 17.612 120.46 128.238c-2.935 110.625-7.003 270.887-7.003 270.887S316.35 851.975 367.091 748.944m267.534-37.94C634.625 607.455 522.57 409 522.57 409s244.423 201.667 244.423 302.763V1271S634.625 814.551 634.625 711.004m-6.303 7.587C631.705 611.627 516.266 409 516.266 409l-15.408 611.59s123.93-194.92 127.464-301.999m545.588 30.353c-50.82-102.302-14-127.479-14-127.479s-123.32 17.612-120.43 128.238c2.88 110.625 7 270.887 7 270.887s178.16-168.615 127.43-271.646m-267.548-37.94C906.362 607.456 1018.42 409 1018.42 409S773.995 610.667 773.995 711.763V1271s132.367-456.449 132.367-559.996m6.379 7.644C909.282 611.629 1024.79 409 1024.79 409l15.34 611.59S916.2 825.669 912.741 718.648" clip-rule="evenodd"/><path fill="url(#c)" fill-rule="evenodd" d="M367.091 722.521c50.803-94.35 14.007-117.57 14.007-117.57s123.297 16.243 120.46 118.27c-2.935 102.027-7.003 249.837-7.003 249.837S316.35 817.544 367.091 722.521m267.534-34.991c0-95.5-112.055-278.53-112.055-278.53s244.423 185.992 244.423 279.23V1204S634.625 783.029 634.625 687.53m-6.303 6.998C631.705 595.878 516.266 409 516.266 409l-15.408 564.058s123.93-179.774 127.464-278.53m545.588 27.993c-50.82-94.35-14-117.57-14-117.57s-123.32 16.243-120.43 118.27c2.88 102.027 7 249.837 7 249.837s178.16-155.514 127.43-250.537M906.362 687.53c0-95.499 112.058-278.53 112.058-278.53S773.995 594.992 773.995 688.23V1204s132.367-420.971 132.367-516.47m6.379 7.05C909.282 595.879 1024.79 409 1024.79 409l15.34 564.058S916.2 793.283 912.741 694.58" clip-rule="evenodd"/><defs><linearGradient id="a" x1="770" x2="770" y1="78" y2="1425" gradientUnits="userSpaceOnUse"><stop stop-color="#fff"/><stop offset=".519" stop-color="#53fa59"/><stop offset="1" stop-color="#889"/></linearGradient><linearGradient id="c" x1="781.5" x2="770.5" y1="457.5" y2="1204" gradientUnits="userSpaceOnUse"><stop stop-color="#fff"/><stop offset=".611" stop-color="#00f808"/><stop offset=".99" stop-color="#2c3a2d"/></linearGradient><radialGradient id="b" cx="0" cy="0" r="1" gradientTransform="rotate(-90.355 1021.64 268.219)scale(363.507)" gradientUnits="userSpaceOnUse"><stop stop-opacity="0"/><stop offset="0" stop-color="#0817ec" stop-opacity=".466"/><stop offset="1" stop-color="#eaff08"/></radialGradient></defs></svg>